<svg width="1026" height="598" viewBox="0 0 1026 598" fill="none" xmlns="http://www.w3.org/2000/svg">
<path d="M-206.621 260.703C-166.554 237.402 -128.204 212.962 -91.8464 184.776C-81.1695 176.499 -72.9395 167.175 -57.375 168.936C-39.6246 170.944 -21.6561 181.826 -4.53858 188.378C23.5552 199.131 41.622 217.784 62.491 240.138C84.5482 263.765 109.217 284.726 129.168 310.221C162.352 352.626 184.738 402.818 218.875 444.087C261.697 495.857 343.031 496.009 390.597 478.496C430.583 463.773 513.255 399.761 559.263 457.558C594.034 501.24 630.969 552.394 678.457 583.343C715.047 607.19 753.145 605.497 790.595 602.547C808.927 601.103 831.901 592.866 850.737 605.566C867.858 617.11 881.736 642.391 894.55 657.948M-153.895 317.385C-152.222 320.072 -151.401 320.523 -149.138 322.142M-155.471 323.718C-119.69 308.623 -99.8276 269.907 -58.4846 262.408C-37.0194 258.515 -8.43712 258.248 9.27312 279.085C37.802 312.651 30.5355 358.101 56.8335 393.655C79.0562 423.699 130.889 453.005 164.548 456.66C220.218 462.705 246.659 485.479 269.536 539.568C283.54 572.678 301.499 601.077 338.742 609.104C369.307 615.691 394.876 607.518 417.183 591.974C449.042 569.772 487.389 559.708 525.827 549.133C553.157 541.614 565.104 566.588 579.17 587.756C601.213 620.926 610.387 667.815 642.624 693.832C673.324 718.608 711.993 723.241 745.511 720.702C779.343 718.139 809.828 710.423 845.034 711.692C861.744 712.294 888.958 710.187 900.968 727.64M-26.6057 480.265C-25.6691 460.657 1.43449 429.903 23.2619 435.551C40.8883 440.112 55.9898 455.116 64.2175 471.234C74.8794 492.12 79.2603 513.492 87.0046 534.995C98.1111 565.834 131.186 584.762 160.432 593.703C194.161 604.014 257.336 591.161 279.286 627.202C304.379 668.407 293.12 718.701 330.702 756.283C333.438 759.019 353.513 755.273 356.942 755.28C388.461 755.342 419.225 751.362 447.154 740.914C461.247 735.642 478.187 728.519 495.252 733.646C509.135 737.817 512.791 753.544 519.748 764.514C534.25 787.38 556.217 805.632 576.953 822.86L577.206 823.071C604.116 845.429 619.972 854.232 650.593 847.464C680.641 840.823 716.251 835.909 748.82 839.354C770.265 841.623 784.355 858.981 797.895 875.662L798.003 875.795M-292.375 232.292C-294.843 193.539 -265.614 152.207 -244.417 126.459C-209.98 84.6284 -160.282 47.7107 -107.826 28.1872C-75.7465 16.2477 -40.4283 18.0941 -5.18512 14.6055C35.4673 10.5815 97.7778 33.2035 118.245 76.958C128.575 99.0425 138.995 131.087 135.625 153.658C132.969 171.452 123.198 186.657 128.011 206.462C139.853 255.186 178.979 239.14 206.983 228.971C227.719 221.44 271.843 202.247 277.254 241.68C281.499 272.612 274.162 332.166 313.41 347.042C356.012 363.188 417.37 355.934 454.136 341.886C487.386 329.181 525.259 281.676 566.531 299.391C645.055 333.094 640.058 441.119 720.314 470.529C739.465 477.548 758.397 467.899 774.9 463.379C796.297 457.52 819.081 455.355 841.315 451.8C874.525 446.49 906.72 450.16 936.61 475.692C969.233 503.557 983.785 540.198 993.494 578.163C998.881 599.234 1001.33 619.1 994.807 638.028C993.992 640.394 987.686 648.901 992.139 650.739M-275.395 193.907C-256.385 191.817 -253.238 166.236 -246.652 151.686C-235.742 127.583 -220.135 105.148 -201.02 87.6866C-176.442 65.2349 -149.305 44.2069 -120.409 27.0284C-104.677 17.6759 -87.738 5.86561 -67.8644 4.87461C-36.6036 3.31578 3.43979 -2.67333 35.5261 11.1565C56.6368 20.2557 82.2387 20.8795 102.045 31.3183C115.657 38.4924 127.353 57.9204 135.801 70.2371C154.514 97.5219 167.534 144.176 159.425 172.405C154.997 187.821 148.071 218.401 172.95 224.817C203.61 232.723 217.549 197.163 247.621 201.281C270.218 204.376 293.381 241.98 294.215 261.717C295.001 280.301 287.854 307.607 302.319 324.966C318.415 344.282 355.384 344.7 375.062 344.321C419.161 343.474 443.315 317.96 480.487 304.303C510.899 293.13 520.571 279.631 557.236 298.115C588.024 313.636 621.319 351.814 639.402 380.061C652.586 400.655 675.302 444.593 702.909 447.632C734 451.055 765.008 435.737 791.958 426.501C828.616 413.938 852.507 425.571 892.055 447.175C914.476 459.423 940.791 474.352 958.079 494.524C973.727 512.782 985.65 537.351 997.835 557.569C1005.56 570.385 1020.36 587.981 1024.35 601.879M913.377 674.797C938.283 667.16 904.106 605.122 891.865 592.318C864.645 563.847 834.851 572.346 803.703 573.582C771.785 574.85 740.384 590.289 708.12 566.1C688.498 551.388 670.969 531.6 653.837 514.014C634.706 494.375 624.722 474.466 609.31 453.229C586.629 421.975 540.214 411.009 508.199 412.427C480.978 413.632 460.142 424.255 438.082 436.561C417.174 448.225 390.663 454.684 368.166 464.193C350.616 471.612 322.95 488.02 302.143 472.87C234.163 423.367 178.691 363.683 126.768 298.483C83.8242 244.558 26.0399 165.815 -44.6084 157.755C-62.7601 155.684 -79.5359 160.516 -97.7954 157.956C-120.339 154.794 -137.31 152.438 -156.036 162.55C-180.244 175.622 -195.12 197.221 -214.329 216.086C-232.612 234.04 -251.269 250.292 -264.039 272.931C-266.439 277.185 -281.45 300.56 -277.045 304.964M-167.708 354.982C-165.829 341.541 -159.859 337.751 -149.657 329.532C-130.117 313.789 -110.181 298.248 -89.0223 284.489C-65.1952 268.996 -36.3061 256.48 -6.4529 280.276C14.6768 297.119 32.8809 319.511 44.8074 343.181C54.9276 363.266 55.9554 384.373 66.5908 404.511C91.5622 451.793 141.26 498.48 194.869 492.803C215.367 490.632 228.259 478.934 250.519 492.649C278.013 509.588 297.464 534.798 314.61 561.354C332.705 589.378 367.937 631.517 398.804 609.956C416.376 597.681 430.586 591.13 451.543 584.041C478.046 575.077 501.601 579.819 530.243 581.451C554.691 582.844 582.401 600.424 595.908 623.608C611.023 649.552 600.768 682.759 622.941 706.116C652.483 737.234 709.022 744.181 745.256 747.251C775.253 749.793 800.65 742.202 824.906 729.573C831.95 725.906 860.349 707.704 859.173 707.595M-53.1556 461.625C-67.0609 426.32 -14.1676 407.441 10.6457 397.559C47.0929 383.045 74.4092 404.772 93.5828 443.586C102.059 460.745 100.443 479.016 101.432 496.255C102.682 518.03 110.514 536.494 124.291 555.584C138.073 574.681 155.957 582.877 177.36 585.365C199.044 587.885 218.403 575.765 240.595 582.25C256.053 586.767 281.38 607.254 292.76 619.805C303.063 631.167 311.509 648.665 313.851 662.536C315.904 674.702 314.708 695.03 325.12 705.443C329.872 710.194 337.579 713.326 338.775 720.196C340.79 731.767 373.002 720.176 379.709 718.507C403.675 712.542 420.219 701.959 440.472 689.852C456.261 680.415 487.443 684.06 506.434 685.07C533.853 686.527 558.049 723.625 571.747 745.549C591.042 776.431 602.157 808.76 639.782 819.956C676.072 830.754 694.904 803.071 725.839 798.249C736.428 796.598 752.568 792.701 752.784 806.848M625.606 903.107C591.238 902.301 528.337 902.589 502.206 865.831C484.404 840.789 489.845 815.189 462.021 794.229C418.445 761.402 393.744 790.855 360.81 807.702C343.439 816.588 324.309 830.08 302.117 820.412C274.054 808.187 257.955 788.803 239.723 764.28C214.821 730.785 202.451 696.557 182.366 661.225C158.859 619.875 74.6033 610.541 36.4934 602.684M371.554 852.72C393.879 845.002 435.221 847.804 455.072 869.888C475.624 892.751 478.703 923.886 506.444 943.12C546.75 971.067 590.136 939.641 629.817 948.843" stroke="#F0FDFF" stroke-opacity="0.65" stroke-width="3" stroke-linecap="round"/>
</svg>
